PathFileType	4	(X/Y/Z)	./resultDataOpenSim/trcMotMarkerGrf/sub10/qtm-15-04.trc
DataRate	CameraRate	NumFrames	NumMarkers	Units	OrigDataRate	OrigDataStartFrame	OrigNumFrames
250.000000	250.000000	7	24	m	250.000000	439	501
Frame#	Time	L.Toe.Tip			R.Toe.Tip			L.Ankle.Lat			R.Ankle.Lat			L.Ankle.Med			R.Ankle.Med			L.Heel			R.Heel			L.Knee.Lat			R.Knee.Lat			L.Knee.Med			R.Knee.Med			L.Thigh.Upper			R.Thigh.Upper			L.ASIS			R.ASIS			V.Sacral			L.Acromium			R.Acromium			C7			L.Elbow			R.Elbow			L.Wrist.Lat			R.Wrist.Lat
		X1	Y1	Z1	X2	Y2	Z2	X3	Y3	Z3	X4	Y4	Z4	X5	Y5	Z5	X6	Y6	Z6	X7	Y7	Z7	X8	Y8	Z8	X9	Y9	Z9	X10	Y10	Z10	X11	Y11	Z11	X12	Y12	Z12	X13	Y13	Z13	X14	Y14	Z14	X15	Y15	Z15	X16	Y16	Z16	X17	Y17	Z17	X18	Y18	Z18	X19	Y19	Z19	X20	Y20	Z20	X21	Y21	Z21	X22	Y22	Z22	X23	Y23	Z23	X24	Y24	Z24

439	1.752	1.7282199	0.048849729	-0.22319377	0.89547781	0.037971712	-0.02280893	1.5944487	0.08925667	-0.26475975	0.79538582	0.13296107	0.014309803	1.6065517	0.11635522	-0.18328779	0.82447972	0.1416504	-0.069053419	1.5342839	0.064554598	-0.21721355	0.7396415	0.14010742	-0.030050465	1.4784681	0.46102743	-0.27318173	1.0458031	0.44873453	0.036810096	1.5034103	0.44176982	-0.15522922	1.0736245	0.43552245	-0.0866276	1.3221748	0.81538963	-0.30346256	1.1854848	0.8304429	0.064722167	1.354125	0.91733414	-0.21509376	1.2895131	0.91486934	0.02623139	1.1271729	0.92419228	-0.15903497	1.2472215	1.3891104	-0.26578759	1.2366426	1.3855157	0.052042439	1.1646355	1.4105336	-0.11517189	1.0858242	1.0960708	-0.34787626	1.2626788	1.044327	0.17756527	1.1005537	0.93978209	-0.54017563	1.5108584	1.0152834	0.208704
440	1.756	1.7303482	0.047675221	-0.22251975	0.89594118	0.037842201	-0.023020508	1.5952284	0.086997045	-0.26310209	0.79812743	0.13489445	0.014444379	1.6071178	0.11377352	-0.18167031	0.82749105	0.14300872	-0.068837386	1.5350495	0.061484623	-0.21638664	0.742726	0.14291687	-0.030015073	1.4847053	0.46040733	-0.27347441	1.051249	0.44844875	0.036415269	1.5100214	0.44128883	-0.15551365	1.0792018	0.43488914	-0.086799829	1.3285302	0.81500234	-0.30429962	1.1922409	0.82942133	0.063735305	1.3605297	0.91703886	-0.21613436	1.2965579	0.91408933	0.025196991	1.1353417	0.92342027	-0.16040872	1.2528262	1.3883951	-0.26717376	1.2425158	1.3848651	0.050645813	1.1703833	1.4096527	-0.11650724	1.0922004	1.0947869	-0.34864588	1.2696701	1.0437004	0.175535	1.1071854	0.93821682	-0.54079818	1.5178897	1.0147884	0.2050278
441	1.76	1.7322107	0.046543308	-0.2223637	0.89643724	0.037690895	-0.023201499	1.5955477	0.084910279	-0.26135466	0.80101936	0.136841	0.014536708	1.6078133	0.11134746	-0.17997472	0.83069066	0.1443514	-0.068637032	1.53552	0.058313706	-0.21507371	0.74601049	0.14575147	-0.030056795	1.4908788	0.45972757	-0.27370752	1.0568289	0.4481181	0.035996917	1.5165522	0.44075824	-0.15574305	1.0849473	0.4342363	-0.0869795	1.3349203	0.81460774	-0.30519418	1.1992211	0.82834661	0.062758056	1.3669355	0.91678795	-0.21717072	1.3037506	0.91328549	0.024138099	1.1425267	0.92284854	-0.16132153	1.2584256	1.3876963	-0.26860345	1.2484146	1.3842279	0.04923557	1.1761257	1.4087601	-0.11787304	1.0986314	1.0934716	-0.34942617	1.2765239	1.0429702	0.17344225	1.1138986	0.93662359	-0.54141048	1.5248214	1.0142355	0.20137343
442	1.764	1.733679	0.045406435	-0.22232566	0.89698904	0.037538223	-0.023333882	1.5955198	0.082983301	-0.25957492	0.80407959	0.13878939	0.014578327	1.608655	0.10922435	-0.17823161	0.83408404	0.14566366	-0.068439894	1.5356629	0.055438059	-0.21317629	0.74950742	0.14859885	-0.030191487	1.4970008	0.45899968	-0.27384645	1.0625722	0.44775344	0.035559397	1.5229819	0.44019961	-0.15590334	1.0908541	0.43355356	-0.087178856	1.3413504	0.81420979	-0.30615102	1.2064728	0.82722672	0.061782839	1.3733323	0.91656834	-0.21820608	1.3110512	0.91245112	0.02304847	1.1490877	0.92243441	-0.16193934	1.2640227	1.3870058	-0.27006742	1.2543793	1.3836098	0.047809221	1.1818602	1.4078676	-0.11926739	1.1051206	1.0921294	-0.35022512	1.2832228	1.0421414	0.17127461	1.1206934	0.93500104	-0.54201542	1.5316682	1.0136191	0.19774592
443	1.768	1.7347197	0.044416936	-0.22210007	0.89759404	0.037398668	-0.023441882	1.5953151	0.081165495	-0.25780515	0.8073109	0.14073473	0.014575508	1.6092618	0.1074125	-0.17644349	0.83768305	0.14692613	-0.068210507	1.535563	0.052998575	-0.21083497	0.75322234	0.15145759	-0.030443422	1.5030797	0.45825189	-0.27389471	1.0685229	0.44740168	0.035109865	1.5292858	0.43964661	-0.15597937	1.0969207	0.43280568	-0.087422474	1.3478254	0.81382055	-0.30716841	1.2138708	0.82606973	0.060842498	1.3797206	0.91636499	-0.21924928	1.3184201	0.91158249	0.021913203	1.1554725	0.92214812	-0.16247024	1.2696119	1.3863321	-0.27155819	1.2604235	1.3830212	0.046368423	1.187599	1.4069998	-0.12068139	1.1116658	1.0907602	-0.35103318	1.2898082	1.0412664	0.16902417	1.1275731	0.93335309	-0.54261566	1.5384348	1.0129341	0.19413941
444	1.772	1.7353706	0.04366693	-0.2215968	0.89823718	0.037274951	-0.023565881	1.5950985	0.079438742	-0.25608001	0.81069102	0.14269233	0.014560864	1.6093606	0.10581802	-0.17463346	0.84150474	0.14812134	-0.067897851	1.5354287	0.050854341	-0.20829756	0.7571561	0.15434721	-0.030839184	1.5091193	0.45752066	-0.27387071	1.0747446	0.44711558	0.034663469	1.5354452	0.43914396	-0.15595783	1.1031496	0.43194086	-0.087739739	1.3543524	0.81345772	-0.30823983	1.2212969	0.8248839	0.059968495	1.3861064	0.91617237	-0.22030703	1.3258307	0.91067665	0.020718522	1.1617954	0.92201024	-0.16305255	1.2751864	1.3856949	-0.27307379	1.266534	1.382466	0.044923708	1.19336	1.4061756	-0.12210591	1.1182576	1.0893604	-0.35183659	1.2963177	1.0403868	0.16669591	1.1345406	0.93169031	-0.54321351	1.5451202	1.0121818	0.19054274
445	1.776	1.7357585	0.043121703	-0.22094957	0.89890925	0.037161091	-0.023731007	1.5949757	0.077857228	-0.25443255	0.81420014	0.14467436	0.014566114	1.6092225	0.10437165	-0.17287988	0.84556332	0.14924543	-0.067483639	1.5354492	0.048823495	-0.20583849	0.76131941	0.15729215	-0.031381902	1.5151227	0.45684357	-0.27378579	1.0812428	0.44692016	0.034235097	1.5414554	0.43873176	-0.15582652	1.1095412	0.43093739	-0.088151352	1.3609316	0.81314581	-0.30935403	1.2287412	0.8236767	0.059168702	1.3924942	0.91599837	-0.2213776	1.3332708	0.90973326	0.019466949	1.1678443	0.92205807	-0.16384009	1.2807437	1.3850931	-0.27461456	1.2726975	1.3819369	0.043483592	1.1991576	1.405403	-0.1235422	1.1248795	1.0879308	-0.35263715	1.3027646	1.039521	0.16431303	1.1415972	0.93002413	-0.54380964	1.5517221	1.0113662	0.18695554
